<svg width="16" height="16" viewBox="0 0 16 16" fill="none" xmlns="http://www.w3.org/2000/svg">
<g clip-path="url(#clip0_31_313)">
<path d="M8.892 0.555406C8.64716 0.33503 8.32941 0.213089 8 0.213089C7.67059 0.213089 7.35284 0.33503 7.108 0.555406L0 6.95274V13.8861C0 14.4519 0.224761 14.9945 0.624839 15.3946C1.02492 15.7946 1.56754 16.0194 2.13333 16.0194H13.8667C14.4325 16.0194 14.9751 15.7946 15.3752 15.3946C15.7752 14.9945 16 14.4519 16 13.8861V6.95274L8.892 0.555406ZM10 14.6841H6V11.3334C6 10.803 6.21071 10.2943 6.58579 9.91919C6.96086 9.54412 7.46957 9.33341 8 9.33341C8.53043 9.33341 9.03914 9.54412 9.41421 9.91919C9.78929 10.2943 10 10.803 10 11.3334V14.6841ZM14.6667 13.8841C14.6667 14.0962 14.5824 14.2997 14.4324 14.4498C14.2823 14.5998 14.0788 14.6841 13.8667 14.6841H11.3333V11.3334C11.3333 10.4494 10.9821 9.6015 10.357 8.97638C9.7319 8.35126 8.88406 8.00007 8 8.00007C7.11595 8.00007 6.2681 8.35126 5.64298 8.97638C5.01786 9.6015 4.66667 10.4494 4.66667 11.3334V14.6841H2.13333C1.92116 14.6841 1.71768 14.5998 1.56765 14.4498C1.41762 14.2997 1.33333 14.0962 1.33333 13.8841V7.54607L8 1.54607L14.6667 7.54607V13.8841Z" fill="#3F3F3F"/>
</g>
<defs>
<clipPath id="clip0_31_313">
<rect width="16" height="16" fill="white"/>
</clipPath>
</defs>
</svg>
