<svg width="16" height="16" viewBox="0 0 16 16" fill="none" xmlns="http://www.w3.org/2000/svg">
<g clip-path="url(#clip0_4_279)">
<path d="M2.96444 6.15732C2.96444 6.15732 -0.0965226 3.46559 1.89331 1.35569C3.88315 -0.754201 6.74939 2.14399 6.74939 2.14399M7.68813 8.37827C7.60327 8.72926 7.52102 9.06946 7.3333 9.3613C8.1667 11.0088 10.0027 12.9887 10.2223 13.3333C10.0925 14.0464 9.91179 14.8968 9.77789 15.5556C8.44458 15.1111 7.9608 14.9457 7.74685 14.8968C7.52209 14.8453 7.42344 14.7214 7.2939 14.5244C7.18893 14.3675 7.1198 14.2279 7.16083 14.0464C7.21418 13.8021 7.64286 13.5656 7.44297 13.2458C7.24308 12.926 6.7626 13.2585 6.49234 13.1589C6.22207 13.0593 5.97791 12.5916 5.98263 12.4184C5.98735 12.2452 6.44083 11.9062 6.44493 11.6528C6.44561 11.5672 6.32661 11.3384 6.20893 11.2814C6.09126 11.2244 5.4889 11.3045 5.37122 11.2475C5.22786 11.1785 5.09087 10.9768 4.96931 10.8531C4.50708 10.9328 4.10875 10.9137 3.62005 10.7955C1.77056 10.3484 0.62064 8.54431 1.05016 6.76772C1.47967 4.99114 3.32524 3.91784 5.17473 4.36498C7.02422 4.81213 8.11764 6.60168 7.68813 8.37827ZM2.92809 6.56531C2.88678 6.73619 2.89706 6.91548 2.95765 7.08052C3.01824 7.24555 3.1264 7.38892 3.26847 7.49248C3.41053 7.59604 3.58012 7.65515 3.75577 7.66233C3.93143 7.66952 4.10528 7.62445 4.25532 7.53283C4.40537 7.44121 4.52487 7.30716 4.59873 7.14762C4.67259 6.98808 4.69747 6.81022 4.67025 6.63654C4.64302 6.46285 4.56491 6.30114 4.44578 6.17186C4.32665 6.04257 4.17185 5.95151 4.00097 5.9102C3.77182 5.8548 3.53005 5.8927 3.32885 6.01555C3.12765 6.13841 2.98349 6.33616 2.92809 6.56531Z" stroke="#3F3F3F" stroke-linejoin="round"/>
<g clip-path="url(#clip1_4_279)">
<mask id="mask0_4_279" style="mask-type:alpha" maskUnits="userSpaceOnUse" x="1" y="0" width="15" height="13">
<path fill-rule="evenodd" clip-rule="evenodd" d="M16.0001 0.888885H1.77783V7.55555V12.4444H16.0001V0.888885ZM1.77783 7.55555C1.77783 5.83733 3.17072 4.44444 4.88894 4.44444C6.60716 4.44444 8.00005 5.83733 8.00005 7.55555C8.00005 9.27377 6.60716 10.6667 4.88894 10.6667C3.17072 10.6667 1.77783 9.27377 1.77783 7.55555Z" fill="#D9D9D9"/>
</mask>
<g mask="url(#mask0_4_279)">
<path d="M10.5922 5.32905L10.5922 5.32905C10.4701 3.50536 8.89098 2.12529 6.99246 2.25243C5.09393 2.37956 3.6544 3.95621 3.77652 5.77989C3.89864 7.60358 5.53597 8.98058 7.4345 8.85345C7.93615 8.81985 8.32194 8.71885 8.73909 8.50439C8.89211 8.58601 9.08321 8.73747 9.24065 8.76034C9.37 8.77952 9.92074 8.5227 10.0501 8.54188C10.1794 8.56106 10.3615 8.74374 10.3865 8.82559C10.4584 9.06855 10.1272 9.52781 10.1746 9.69446C10.2219 9.86112 10.5949 10.2342 10.8826 10.2484C11.1703 10.2625 11.5292 9.80141 11.8157 10.0467C12.1022 10.292 11.7639 10.6459 11.7862 10.895C11.8014 11.0805 11.9092 11.193 12.0563 11.3112C12.2389 11.4605 12.3701 11.5491 12.5999 11.5309C12.8187 11.5135 13.3298 11.5265 14.7351 11.5514C14.6656 10.8827 14.5833 10.0173 14.4938 9.29802C14.181 9.03499 11.8364 7.69564 10.548 6.37322C10.6397 6.03857 10.6163 5.68935 10.5922 5.32905Z" stroke="#3F3F3F" stroke-linejoin="round"/>
</g>
</g>
</g>
<defs>
<clipPath id="clip0_4_279">
<rect width="16" height="16" fill="white"/>
</clipPath>
<clipPath id="clip1_4_279">
<rect width="14.2222" height="10.6667" fill="white" transform="translate(1.77783 1.77777)"/>
</clipPath>
</defs>
</svg>
