<svg width="16" height="16" viewBox="0 0 16 16" fill="none" xmlns="http://www.w3.org/2000/svg">
<path d="M12 2.5H4C3.17157 2.5 2.5 3.17157 2.5 4V12C2.5 12.8284 3.17157 13.5 4 13.5H12C12.8284 13.5 13.5 12.8284 13.5 12V4C13.5 3.17157 12.8284 2.5 12 2.5Z" stroke="#3F3F3F" stroke-linejoin="round"/>
<path d="M11 4.5H5C4.72386 4.5 4.5 4.72386 4.5 5V11C4.5 11.2761 4.72386 11.5 5 11.5H11C11.2761 11.5 11.5 11.2761 11.5 11V5C11.5 4.72386 11.2761 4.5 11 4.5Z" stroke="#3F3F3F" stroke-linejoin="round"/>
<path d="M1.5 5.5H2.5M8 2.5V1.5V2.5ZM10.5 2.5V1.5V2.5ZM5.5 2.5V1.5V2.5ZM8 14.5V13.5V14.5ZM10.5 14.5V13.5V14.5ZM5.5 14.5V13.5V14.5ZM13.5 8H14.5H13.5ZM13.5 10.5H14.5H13.5ZM13.5 5.5H14.5H13.5ZM1.5 8H2.5H1.5ZM1.5 10.5H2.5H1.5Z" stroke="#3F3F3F" stroke-linecap="round" stroke-linejoin="round"/>
</svg>
